<svg width="558" height="520" viewBox="0 0 558 520" fill="none" xmlns="http://www.w3.org/2000/svg">
<circle cx="279" cy="260" r="250" fill="url(#paint0_linear_1_7)"/>
<path d="M321.423 189.854L164.053 291.076C155.069 296.855 143.25 290.404 143.25 279.722L143.25 77.2781C143.25 66.5959 155.069 60.1453 164.053 65.9241L321.423 167.146C329.686 172.46 329.686 184.54 321.423 189.854Z" fill="#D9D9D9"/>
<path d="M321.423 189.854L164.053 291.076C155.069 296.855 143.25 290.404 143.25 279.722L143.25 77.2781C143.25 66.5959 155.069 60.1453 164.053 65.9241L321.423 167.146C329.686 172.46 329.686 184.54 321.423 189.854Z" stroke="#8D8D8D"/>
<path d="M321.423 189.854L164.053 291.076C155.069 296.855 143.25 290.404 143.25 279.722L143.25 77.2781C143.25 66.5959 155.069 60.1453 164.053 65.9241L321.423 167.146C329.686 172.46 329.686 184.54 321.423 189.854Z" stroke="#8D8D8D"/>
<path d="M321.423 189.854L164.053 291.076C155.069 296.855 143.25 290.404 143.25 279.722L143.25 77.2781C143.25 66.5959 155.069 60.1453 164.053 65.9241L321.423 167.146C329.686 172.46 329.686 184.54 321.423 189.854Z" stroke="#8D8D8D"/>
<path d="M321.423 189.854L164.053 291.076C155.069 296.855 143.25 290.404 143.25 279.722L143.25 77.2781C143.25 66.5959 155.069 60.1453 164.053 65.9241L321.423 167.146C329.686 172.46 329.686 184.54 321.423 189.854Z" stroke="#8D8D8D"/>
<path d="M391.423 270.854L234.053 372.076C225.069 377.855 213.25 371.404 213.25 360.722L213.25 158.278C213.25 147.596 225.069 141.145 234.053 146.924L391.423 248.146C399.686 253.46 399.686 265.54 391.423 270.854Z" fill="#D9D9D9"/>
<path d="M391.423 270.854L234.053 372.076C225.069 377.855 213.25 371.404 213.25 360.722L213.25 158.278C213.25 147.596 225.069 141.145 234.053 146.924L391.423 248.146C399.686 253.46 399.686 265.54 391.423 270.854Z" stroke="#8D8D8D"/>
<path d="M391.423 270.854L234.053 372.076C225.069 377.855 213.25 371.404 213.25 360.722L213.25 158.278C213.25 147.596 225.069 141.145 234.053 146.924L391.423 248.146C399.686 253.46 399.686 265.54 391.423 270.854Z" stroke="#8D8D8D"/>
<path d="M391.423 270.854L234.053 372.076C225.069 377.855 213.25 371.404 213.25 360.722L213.25 158.278C213.25 147.596 225.069 141.145 234.053 146.924L391.423 248.146C399.686 253.46 399.686 265.54 391.423 270.854Z" stroke="#8D8D8D"/>
<path d="M391.423 270.854L234.053 372.076C225.069 377.855 213.25 371.404 213.25 360.722L213.25 158.278C213.25 147.596 225.069 141.145 234.053 146.924L391.423 248.146C399.686 253.46 399.686 265.54 391.423 270.854Z" stroke="#8D8D8D"/>
<path d="M472.423 360.854L315.053 462.076C306.069 467.855 294.25 461.404 294.25 450.722V248.278C294.25 237.596 306.069 231.145 315.053 236.924L472.423 338.146C480.686 343.46 480.686 355.54 472.423 360.854Z" fill="#D9D9D9"/>
<path d="M472.423 360.854L315.053 462.076C306.069 467.855 294.25 461.404 294.25 450.722V248.278C294.25 237.596 306.069 231.145 315.053 236.924L472.423 338.146C480.686 343.46 480.686 355.54 472.423 360.854Z" stroke="#8D8D8D"/>
<path d="M472.423 360.854L315.053 462.076C306.069 467.855 294.25 461.404 294.25 450.722V248.278C294.25 237.596 306.069 231.145 315.053 236.924L472.423 338.146C480.686 343.46 480.686 355.54 472.423 360.854Z" stroke="#8D8D8D"/>
<path d="M472.423 360.854L315.053 462.076C306.069 467.855 294.25 461.404 294.25 450.722V248.278C294.25 237.596 306.069 231.145 315.053 236.924L472.423 338.146C480.686 343.46 480.686 355.54 472.423 360.854Z" stroke="#8D8D8D"/>
<path d="M472.423 360.854L315.053 462.076C306.069 467.855 294.25 461.404 294.25 450.722V248.278C294.25 237.596 306.069 231.145 315.053 236.924L472.423 338.146C480.686 343.46 480.686 355.54 472.423 360.854Z" stroke="#8D8D8D"/>
<defs>
<linearGradient id="paint0_linear_1_7" x1="29" y1="260" x2="529" y2="260" gradientUnits="userSpaceOnUse">
<stop stop-color="#D9D9D9"/>
<stop offset="1"/>
</linearGradient>
</defs>
</svg>
